Coordinates
version=1
nRows=18
nColumns=22
inDegrees=yes

Units are S.I. units (second, meters, Newtons, ...)
If the header above contains a line with 'inDegrees', this indicates whether rotational values are in degrees (yes) or radians (no).

endheader
time	pelvis_tilt	pelvis_list	pelvis_rotation	pelvis_tx	pelvis_ty	pelvis_tz	hip_flexion_r	hip_adduction_r	hip_rotation_r	knee_angle_r	ankle_angle_r	subtalar_angle_r	hip_flexion_l	hip_adduction_l	hip_rotation_l	knee_angle_l	ankle_angle_l	subtalar_angle_l	lumbar_extension	lumbar_bending	lumbar_rotation
      3.98000000	     -0.96928043	      3.03851421	     -1.19181992	      0.42507447	      0.97239160	     -0.66032098	     29.59208547	     -6.02114313	    -30.32981083	    -13.36923787	      8.04613637	      5.39817414	    -16.13704412	     -0.52776502	    -13.03381765	    -13.20645268	     13.60768392	     12.19464608	     -5.60397715	     -1.68590536	     -9.48802657
      3.99000000	     -0.82947523	      2.96185799	     -1.05900763	      0.43730935	      0.97248509	     -0.65778405	     29.21042121	     -6.37116250	    -31.41945117	    -14.48191474	      7.68822134	      4.86097460	    -16.61798092	     -0.89933747	    -12.60389252	    -13.86231698	     12.66013482	     12.95671705	     -5.50776732	     -1.37668735	     -9.81420177
      4.00000000	     -0.72503240	      2.83136835	     -0.92286678	      0.44976883	      0.97275745	     -0.65500582	     28.80852309	     -6.65313124	    -32.66888443	    -15.57073350	      7.20432130	      4.20824651	    -17.02015986	     -1.34629979	    -12.16766465	    -14.58013685	     11.57338713	     13.70780913	     -5.34670802	     -1.01948198	    -10.14273043
      4.01000000	     -0.64637010	      2.62918402	     -0.80600459	      0.46241007	      0.97322829	     -0.65194158	     28.38324558	     -6.82304863	    -34.00085463	    -16.59731189	      6.63752602	      3.33716369	    -17.34341956	     -1.88531608	    -11.78178578	    -15.37312421	     10.34032964	     14.50372936	     -5.13525705	     -0.59724177	    -10.46450494
      4.02000000	     -0.59600868	      2.36584259	     -0.72193514	      0.47514842	      0.97388889	     -0.64856475	     27.95892709	     -6.87197131	    -35.29724962	    -17.56048186	      6.06937393	      2.24902719	    -17.56545560	     -2.50319483	    -11.44945138	    -16.26623085	      8.95259174	     15.29981045	     -4.88149143	     -0.12804075	    -10.76876642
      4.03000000	     -0.58036244	      2.05944388	     -0.69304625	      0.48789095	      0.97471485	     -0.64485764	     27.57014854	     -6.79396645	    -36.39361267	    -18.47488342	      5.56315628	      0.98969609	    -17.66540503	     -3.17439618	    -11.18423230	    -17.27393295	      7.40277668	     16.04727495	     -4.58859311	      0.36417204	    -11.04022583
      4.04000000	     -0.60455733	      1.73682451	     -0.74293145	      0.50052792	      0.97567289	     -0.64080025	     27.24916660	     -6.58925556	    -37.12134758	    -19.35440263	      5.15401738	     -0.34571349	    -17.61591157	     -3.86694411	    -11.00173708	    -18.42686851	      5.67803719	     16.68804031	     -4.26420441	      0.84700216	    -11.27376790
      4.05000000	     -0.67015545	      1.41204083	     -0.87886083	      0.51295222	      0.97673555	     -0.63638762	     27.01163813	     -6.25461570	    -37.38252681	    -20.20029274	      4.84572718	     -1.65876233	    -17.39059682	     -4.56758576	    -10.89473962	    -19.76114441	      3.81795547	     17.16372550	     -3.92042118	      1.30063268	    -11.46107898
      4.06000000	     -0.76960264	      1.11191128	     -1.15478985	      0.52511845	      0.97786880	     -0.63159016	     26.86776539	     -5.79214145	    -37.11002292	    -21.01936503	      4.64677819	     -2.90075133	    -17.00787646	     -5.23204044	    -10.91531585	    -21.26504208	      1.80670218	     17.45812259	     -3.57069230	      1.69995529	    -11.55390400
      4.07000000	     -0.87182213	      0.84509024	     -1.53183076	      0.53695334	      0.97908921	     -0.62647082	     26.76841290	     -5.23556731	    -36.41456750	    -21.80008690	      4.55171973	     -3.98848178	    -16.47340648	     -5.86890433	    -11.01071179	    -22.97861148	     -0.28328477	     17.56274269	     -3.26116460	      2.03147754	    -11.58837078
      4.08000000	     -0.96420183	      0.61570808	     -1.97530822	      0.54848546	      0.98039165	     -0.62112640	     26.67029651	     -4.62197993	    -35.47132446	    -22.52616410	      4.55496377	     -5.06115891	    -15.79858400	     -6.47931425	    -11.13055025	    -24.89959690	     -2.42308727	     17.47857185	     -2.99891420	      2.29665982	    -11.58949855
      4.09000000	     -1.03038311	      0.40404175	     -2.51933526	      0.55968434	      0.98177821	     -0.61552775	     26.53580892	     -3.92000041	    -34.28107117	    -23.16151527	      4.56213922	     -5.82994349	    -15.01323935	     -7.08144161	    -11.34382171	    -27.02555363	     -4.52091966	     17.31909074	     -2.80578285	      2.52273978	    -11.53519958
      4.10000000	     -1.06587131	      0.23871889	     -3.07035269	      0.57060841	      0.98322019	     -0.60986676	     26.33058986	     -3.23580702	    -33.11207054	    -23.71487672	      4.67708288	     -6.66494214	    -14.10826195	     -7.65119455	    -11.48567130	    -29.35120798	     -6.55663399	     16.94913327	     -2.67107110	      2.67947564	    -11.48450039
      4.11000000	     -1.04648089	      0.08263669	     -3.67243631	      0.58124623	      0.98474733	     -0.60406019	     26.01771767	     -2.51770259	    -31.92724304	    -24.16575669	      4.79226815	     -7.20899268	    -13.14082481	     -8.21961265	    -11.63993765	    -31.83585285	     -8.42349974	     16.65095031	     -2.62709804	      2.80561498	    -11.39707161
      4.12000000	     -1.00064549	     -0.04370567	     -4.23220377	      0.59163339	      0.98630156	     -0.59828950	     25.60656493	     -1.84210574	    -30.88834603	    -24.50984131	      5.02980580	     -7.78236829	    -12.06814654	     -8.75090926	    -11.61312214	    -34.44536486	    -10.09071292	     16.13936218	     -2.62639406	      2.88312005	    -11.34823493
      4.13000000	     -0.91916134	     -0.15911988	     -4.78732312	      0.60175952	      0.98790011	     -0.59248982	     25.08731807	     -1.18068230	    -29.97307420	    -24.73601958	      5.26986847	     -8.16606404	    -10.92405229	     -9.25914147	    -11.49526787	    -37.13165194	    -11.45743182	     15.73415599	     -2.68178505	      2.93152400	    -11.28437252
      4.14000000	     -0.82490732	     -0.26273026	     -5.29548108	      0.61163088	      0.98950222	     -0.58676149	     24.48541721	     -0.55533608	    -29.21397753	    -24.85335093	      5.58181516	     -8.50959209	     -9.69211671	     -9.70837440	    -11.15529726	    -39.83324067	    -12.45521306	     15.24919858	     -2.76118222	      2.95524080	    -11.24235650
      4.15000000	     -0.72378303	     -0.35201419	     -5.76810392	      0.62124640	      0.99110876	     -0.58111303	     23.80956172	      0.03613163	    -28.59671730	    -24.85451104	      5.93039971	     -8.79741790	     -8.38628706	    -10.07417905	    -10.61002744	    -42.48794928	    -13.02476276	     14.73145127	     -2.85608361	      2.95535820	    -11.19136071
